<mxfile host="app.diagrams.net" modified="2022-09-12T04:19:06.631Z" agent="5.0 (Macintosh; Intel Mac OS X 10_15_7) AppleWebKit/537.36 (KHTML, like Gecko) Chrome/104.0.0.0 Safari/537.36" etag="LDulREuYEAXIbB-DiOh4" version="20.3.0" type="github">
  <diagram id="kvl_77ImQ4wkTwNLi0Ca" name="ページ1">
    <mxGraphModel dx="507" dy="1795" grid="1" gridSize="10" guides="1" tooltips="1" connect="1" arrows="1" fold="1" page="1" pageScale="1" pageWidth="827" pageHeight="1169" math="0" shadow="0">
      <root>
        <mxCell id="0" />
        <mxCell id="1" parent="0" />
        <mxCell id="IOom1uG6k6-SB6HDW1DT-1" value="開始" style="ellipse;whiteSpace=wrap;html=1;" vertex="1" parent="1">
          <mxGeometry x="200" y="-300" width="120" height="80" as="geometry" />
        </mxCell>
        <mxCell id="IOom1uG6k6-SB6HDW1DT-2" value="n = n +1" style="rounded=0;whiteSpace=wrap;html=1;" vertex="1" parent="1">
          <mxGeometry x="200" y="100" width="120" height="60" as="geometry" />
        </mxCell>
        <mxCell id="IOom1uG6k6-SB6HDW1DT-4" value="n % 15 = 0" style="rhombus;whiteSpace=wrap;html=1;" vertex="1" parent="1">
          <mxGeometry x="192.5" y="280" width="135" height="70" as="geometry" />
        </mxCell>
        <mxCell id="IOom1uG6k6-SB6HDW1DT-5" value="" style="endArrow=classic;html=1;rounded=0;exitX=0.5;exitY=1;exitDx=0;exitDy=0;" edge="1" parent="1" source="IOom1uG6k6-SB6HDW1DT-2" target="IOom1uG6k6-SB6HDW1DT-4">
          <mxGeometry width="50" height="50" relative="1" as="geometry">
            <mxPoint x="240" y="350" as="sourcePoint" />
            <mxPoint x="290" y="300" as="targetPoint" />
          </mxGeometry>
        </mxCell>
        <mxCell id="IOom1uG6k6-SB6HDW1DT-6" value="n % 3 = 0" style="rhombus;whiteSpace=wrap;html=1;" vertex="1" parent="1">
          <mxGeometry x="370" y="390" width="110" height="80" as="geometry" />
        </mxCell>
        <mxCell id="IOom1uG6k6-SB6HDW1DT-7" value="FizzBuzzと出力" style="rounded=0;whiteSpace=wrap;html=1;" vertex="1" parent="1">
          <mxGeometry x="200" y="400" width="120" height="60" as="geometry" />
        </mxCell>
        <mxCell id="IOom1uG6k6-SB6HDW1DT-8" value="" style="endArrow=classic;html=1;rounded=0;exitX=0.5;exitY=1;exitDx=0;exitDy=0;" edge="1" parent="1" source="IOom1uG6k6-SB6HDW1DT-4" target="IOom1uG6k6-SB6HDW1DT-7">
          <mxGeometry width="50" height="50" relative="1" as="geometry">
            <mxPoint x="240" y="350" as="sourcePoint" />
            <mxPoint x="290" y="300" as="targetPoint" />
          </mxGeometry>
        </mxCell>
        <mxCell id="IOom1uG6k6-SB6HDW1DT-9" value="" style="endArrow=classic;html=1;rounded=0;exitX=1;exitY=0.5;exitDx=0;exitDy=0;entryX=0.5;entryY=0;entryDx=0;entryDy=0;" edge="1" parent="1" source="IOom1uG6k6-SB6HDW1DT-4" target="IOom1uG6k6-SB6HDW1DT-6">
          <mxGeometry width="50" height="50" relative="1" as="geometry">
            <mxPoint x="240" y="350" as="sourcePoint" />
            <mxPoint x="290" y="300" as="targetPoint" />
            <Array as="points">
              <mxPoint x="425" y="315" />
            </Array>
          </mxGeometry>
        </mxCell>
        <mxCell id="IOom1uG6k6-SB6HDW1DT-10" value="YES" style="text;html=1;align=center;verticalAlign=middle;resizable=0;points=[];autosize=1;strokeColor=none;fillColor=none;" vertex="1" parent="1">
          <mxGeometry x="205" y="345" width="50" height="30" as="geometry" />
        </mxCell>
        <mxCell id="IOom1uG6k6-SB6HDW1DT-11" value="NO" style="text;html=1;align=center;verticalAlign=middle;resizable=0;points=[];autosize=1;strokeColor=none;fillColor=none;" vertex="1" parent="1">
          <mxGeometry x="300" y="275" width="40" height="30" as="geometry" />
        </mxCell>
        <mxCell id="IOom1uG6k6-SB6HDW1DT-12" value="Fizzと出力" style="rounded=0;whiteSpace=wrap;html=1;" vertex="1" parent="1">
          <mxGeometry x="365" y="520" width="120" height="60" as="geometry" />
        </mxCell>
        <mxCell id="IOom1uG6k6-SB6HDW1DT-13" value="n % 5 = 0" style="rhombus;whiteSpace=wrap;html=1;" vertex="1" parent="1">
          <mxGeometry x="540" y="510" width="90" height="80" as="geometry" />
        </mxCell>
        <mxCell id="IOom1uG6k6-SB6HDW1DT-14" value="Buzzと出力" style="rounded=0;whiteSpace=wrap;html=1;" vertex="1" parent="1">
          <mxGeometry x="525" y="640" width="120" height="60" as="geometry" />
        </mxCell>
        <mxCell id="IOom1uG6k6-SB6HDW1DT-15" value="" style="endArrow=classic;html=1;rounded=0;exitX=0.5;exitY=1;exitDx=0;exitDy=0;entryX=0.5;entryY=0;entryDx=0;entryDy=0;" edge="1" parent="1" source="IOom1uG6k6-SB6HDW1DT-6" target="IOom1uG6k6-SB6HDW1DT-12">
          <mxGeometry width="50" height="50" relative="1" as="geometry">
            <mxPoint x="470" y="510" as="sourcePoint" />
            <mxPoint x="520" y="460" as="targetPoint" />
          </mxGeometry>
        </mxCell>
        <mxCell id="IOom1uG6k6-SB6HDW1DT-16" value="" style="endArrow=classic;html=1;rounded=0;exitX=1;exitY=0.5;exitDx=0;exitDy=0;entryX=0.5;entryY=0;entryDx=0;entryDy=0;" edge="1" parent="1" source="IOom1uG6k6-SB6HDW1DT-6" target="IOom1uG6k6-SB6HDW1DT-13">
          <mxGeometry width="50" height="50" relative="1" as="geometry">
            <mxPoint x="470" y="510" as="sourcePoint" />
            <mxPoint x="520" y="460" as="targetPoint" />
            <Array as="points">
              <mxPoint x="585" y="430" />
            </Array>
          </mxGeometry>
        </mxCell>
        <mxCell id="IOom1uG6k6-SB6HDW1DT-17" value="YES" style="text;html=1;align=center;verticalAlign=middle;resizable=0;points=[];autosize=1;strokeColor=none;fillColor=none;" vertex="1" parent="1">
          <mxGeometry x="375" y="455" width="50" height="30" as="geometry" />
        </mxCell>
        <mxCell id="IOom1uG6k6-SB6HDW1DT-18" value="NO" style="text;html=1;align=center;verticalAlign=middle;resizable=0;points=[];autosize=1;strokeColor=none;fillColor=none;" vertex="1" parent="1">
          <mxGeometry x="460" y="385" width="40" height="30" as="geometry" />
        </mxCell>
        <mxCell id="IOom1uG6k6-SB6HDW1DT-19" value="" style="endArrow=classic;html=1;rounded=0;exitX=0.5;exitY=1;exitDx=0;exitDy=0;entryX=0.5;entryY=0;entryDx=0;entryDy=0;" edge="1" parent="1" source="IOom1uG6k6-SB6HDW1DT-13" target="IOom1uG6k6-SB6HDW1DT-14">
          <mxGeometry width="50" height="50" relative="1" as="geometry">
            <mxPoint x="470" y="510" as="sourcePoint" />
            <mxPoint x="520" y="460" as="targetPoint" />
          </mxGeometry>
        </mxCell>
        <mxCell id="IOom1uG6k6-SB6HDW1DT-20" value="YES" style="text;html=1;align=center;verticalAlign=middle;resizable=0;points=[];autosize=1;strokeColor=none;fillColor=none;" vertex="1" parent="1">
          <mxGeometry x="525" y="575" width="50" height="30" as="geometry" />
        </mxCell>
        <mxCell id="IOom1uG6k6-SB6HDW1DT-21" value="nの中身を出力" style="rounded=0;whiteSpace=wrap;html=1;" vertex="1" parent="1">
          <mxGeometry x="680" y="640" width="120" height="60" as="geometry" />
        </mxCell>
        <mxCell id="IOom1uG6k6-SB6HDW1DT-22" value="" style="endArrow=classic;html=1;rounded=0;exitX=1;exitY=0.5;exitDx=0;exitDy=0;entryX=0.5;entryY=0;entryDx=0;entryDy=0;" edge="1" parent="1" source="IOom1uG6k6-SB6HDW1DT-13" target="IOom1uG6k6-SB6HDW1DT-21">
          <mxGeometry width="50" height="50" relative="1" as="geometry">
            <mxPoint x="580" y="510" as="sourcePoint" />
            <mxPoint x="630" y="460" as="targetPoint" />
            <Array as="points">
              <mxPoint x="740" y="550" />
            </Array>
          </mxGeometry>
        </mxCell>
        <mxCell id="IOom1uG6k6-SB6HDW1DT-23" value="NO" style="text;html=1;align=center;verticalAlign=middle;resizable=0;points=[];autosize=1;strokeColor=none;fillColor=none;" vertex="1" parent="1">
          <mxGeometry x="610" y="515" width="40" height="30" as="geometry" />
        </mxCell>
        <mxCell id="IOom1uG6k6-SB6HDW1DT-26" value="終了" style="ellipse;whiteSpace=wrap;html=1;" vertex="1" parent="1">
          <mxGeometry x="490" y="-55" width="120" height="80" as="geometry" />
        </mxCell>
        <mxCell id="IOom1uG6k6-SB6HDW1DT-28" value="" style="endArrow=classic;html=1;rounded=0;exitX=0.5;exitY=1;exitDx=0;exitDy=0;entryX=0;entryY=0.5;entryDx=0;entryDy=0;" edge="1" parent="1" source="IOom1uG6k6-SB6HDW1DT-12" target="IOom1uG6k6-SB6HDW1DT-34">
          <mxGeometry width="50" height="50" relative="1" as="geometry">
            <mxPoint x="360" y="750" as="sourcePoint" />
            <mxPoint x="200" y="-10" as="targetPoint" />
            <Array as="points">
              <mxPoint x="425" y="760" />
              <mxPoint x="260" y="760" />
              <mxPoint x="120" y="760" />
              <mxPoint x="120" y="-15" />
            </Array>
          </mxGeometry>
        </mxCell>
        <mxCell id="IOom1uG6k6-SB6HDW1DT-29" value="" style="endArrow=classic;html=1;rounded=0;exitX=0.5;exitY=1;exitDx=0;exitDy=0;entryX=0;entryY=0.5;entryDx=0;entryDy=0;" edge="1" parent="1" source="IOom1uG6k6-SB6HDW1DT-14" target="IOom1uG6k6-SB6HDW1DT-34">
          <mxGeometry width="50" height="50" relative="1" as="geometry">
            <mxPoint x="430" y="750" as="sourcePoint" />
            <mxPoint x="200" y="830" as="targetPoint" />
            <Array as="points">
              <mxPoint x="585" y="840" />
              <mxPoint x="260" y="840" />
              <mxPoint x="120" y="840" />
              <mxPoint x="120" y="-15" />
            </Array>
          </mxGeometry>
        </mxCell>
        <mxCell id="IOom1uG6k6-SB6HDW1DT-30" value="" style="endArrow=classic;html=1;rounded=0;exitX=0.5;exitY=1;exitDx=0;exitDy=0;entryX=0;entryY=0.5;entryDx=0;entryDy=0;" edge="1" parent="1" source="IOom1uG6k6-SB6HDW1DT-21" target="IOom1uG6k6-SB6HDW1DT-34">
          <mxGeometry width="50" height="50" relative="1" as="geometry">
            <mxPoint x="560" y="750" as="sourcePoint" />
            <mxPoint x="610" y="700" as="targetPoint" />
            <Array as="points">
              <mxPoint x="740" y="880" />
              <mxPoint x="260" y="880" />
              <mxPoint x="120" y="880" />
              <mxPoint x="120" y="-15" />
            </Array>
          </mxGeometry>
        </mxCell>
        <mxCell id="IOom1uG6k6-SB6HDW1DT-32" value="n = 0" style="rounded=0;whiteSpace=wrap;html=1;" vertex="1" parent="1">
          <mxGeometry x="200" y="-180" width="120" height="60" as="geometry" />
        </mxCell>
        <mxCell id="IOom1uG6k6-SB6HDW1DT-33" value="" style="endArrow=classic;html=1;rounded=0;exitX=0.5;exitY=1;exitDx=0;exitDy=0;entryX=0.5;entryY=0;entryDx=0;entryDy=0;" edge="1" parent="1" source="IOom1uG6k6-SB6HDW1DT-1" target="IOom1uG6k6-SB6HDW1DT-32">
          <mxGeometry width="50" height="50" relative="1" as="geometry">
            <mxPoint x="370" y="-180" as="sourcePoint" />
            <mxPoint x="420" y="-230" as="targetPoint" />
          </mxGeometry>
        </mxCell>
        <mxCell id="IOom1uG6k6-SB6HDW1DT-34" value="nが既定の回数に&lt;br&gt;達しているか?" style="rhombus;whiteSpace=wrap;html=1;" vertex="1" parent="1">
          <mxGeometry x="200" y="-60" width="120" height="90" as="geometry" />
        </mxCell>
        <mxCell id="IOom1uG6k6-SB6HDW1DT-35" value="" style="endArrow=classic;html=1;rounded=0;exitX=0.5;exitY=1;exitDx=0;exitDy=0;entryX=0.5;entryY=0;entryDx=0;entryDy=0;" edge="1" parent="1" source="IOom1uG6k6-SB6HDW1DT-32" target="IOom1uG6k6-SB6HDW1DT-34">
          <mxGeometry width="50" height="50" relative="1" as="geometry">
            <mxPoint x="370" y="-60" as="sourcePoint" />
            <mxPoint x="420" y="-110" as="targetPoint" />
          </mxGeometry>
        </mxCell>
        <mxCell id="IOom1uG6k6-SB6HDW1DT-36" value="" style="endArrow=classic;html=1;rounded=0;exitX=0.5;exitY=1;exitDx=0;exitDy=0;entryX=0.5;entryY=0;entryDx=0;entryDy=0;" edge="1" parent="1" source="IOom1uG6k6-SB6HDW1DT-34" target="IOom1uG6k6-SB6HDW1DT-2">
          <mxGeometry width="50" height="50" relative="1" as="geometry">
            <mxPoint x="370" y="-60" as="sourcePoint" />
            <mxPoint x="420" y="-110" as="targetPoint" />
          </mxGeometry>
        </mxCell>
        <mxCell id="IOom1uG6k6-SB6HDW1DT-37" value="NO" style="text;html=1;align=center;verticalAlign=middle;resizable=0;points=[];autosize=1;strokeColor=none;fillColor=none;" vertex="1" parent="1">
          <mxGeometry x="210" y="20" width="40" height="30" as="geometry" />
        </mxCell>
        <mxCell id="IOom1uG6k6-SB6HDW1DT-38" value="" style="endArrow=none;html=1;rounded=0;exitX=0.5;exitY=1;exitDx=0;exitDy=0;entryX=0;entryY=0.5;entryDx=0;entryDy=0;" edge="1" parent="1" source="IOom1uG6k6-SB6HDW1DT-7" target="IOom1uG6k6-SB6HDW1DT-34">
          <mxGeometry width="50" height="50" relative="1" as="geometry">
            <mxPoint x="260" y="460" as="sourcePoint" />
            <mxPoint x="200" y="-15" as="targetPoint" />
            <Array as="points">
              <mxPoint x="260" y="560" />
              <mxPoint x="120" y="560" />
              <mxPoint x="120" y="-15" />
            </Array>
          </mxGeometry>
        </mxCell>
        <mxCell id="IOom1uG6k6-SB6HDW1DT-39" value="" style="endArrow=classic;html=1;rounded=0;exitX=1;exitY=0.5;exitDx=0;exitDy=0;entryX=0;entryY=0.5;entryDx=0;entryDy=0;" edge="1" parent="1" source="IOom1uG6k6-SB6HDW1DT-34" target="IOom1uG6k6-SB6HDW1DT-26">
          <mxGeometry width="50" height="50" relative="1" as="geometry">
            <mxPoint x="300" y="50" as="sourcePoint" />
            <mxPoint x="350" as="targetPoint" />
          </mxGeometry>
        </mxCell>
        <mxCell id="IOom1uG6k6-SB6HDW1DT-40" value="YES" style="text;html=1;align=center;verticalAlign=middle;resizable=0;points=[];autosize=1;strokeColor=none;fillColor=none;" vertex="1" parent="1">
          <mxGeometry x="290" y="-55" width="50" height="30" as="geometry" />
        </mxCell>
      </root>
    </mxGraphModel>
  </diagram>
</mxfile>
